<svg width="124" height="35" fill="none" xmlns="http://www.w3.org/2000/svg"><g clip-path="url(#clip0_211_25180)"><path d="M36.552 26.795c-.896-.065-.656-2.197-2.552-1.961-1.344.163-1.488 1.79-1.6 3.06-.136 1.417-.296 2.621-.704 2.442-.408-.179-.256-.814-.408-2.792-.168-2.263-.712-3.508-2.04-3.728-1.6-.26-2.248 2.23-2.528 3.2-.28.968-.8 1.4-1.08 1.4s-.72-.131-.848-1.27c-.128-1.14.8-3.102 2.072-4.477 3.84-4.119 9.36-7.025 9.36-13.39C36.216 3.256 32 .073 28.056.073a6.985 6.985 0 00-2.861.623 7.094 7.094 0 00-2.37 1.746c-.937.936-1.337 1.986-1.697 1.986-.36 0-.752-1.05-1.68-1.986a7.11 7.11 0 00-2.37-1.745 7 7 0 00-2.862-.624c-3.912 0-8.16 3.175-8.16 9.19 0 6.365 5.512 9.27 9.36 13.39 1.272 1.375 2.176 3.328 2.072 4.476-.104 1.148-.584 1.18-.8 1.172-.216-.008-.728-.22-1.096-1.628-.368-1.408-.752-2.442-2.152-2.54-1.56-.097-1.968 2.084-2.104 3.818-.112 1.49-.152 4.29-.704 4.07-.32-.139-.48-3.345-.744-5.804-.2-1.904-.448-5.974-1.536-6.698-1.32-.88-2.48.105-2.84 1.668-.272 1.164-.312 2.133-.656 3.695C4.6 26.047 4.312 26.78 3.2 26.78H.072v1.71H.8c4.048.17 5.184-.253 5.672-2.109.3-1.343.533-2.702.696-4.07.144-.813.632-1.212.848 1.034.104 1.115.208 2.54.376 3.98.496 4.25.624 7.188 2.448 7.326 2.024.18 2.04-3.606 2.176-5.103.08-.953.2-3.671.672-3.378.656.398.408 3.817 3.52 3.955 1.784.09 2.44-1.286 2.56-2.816.12-1.53-1.24-3.573-3.08-5.413-4.432-4.436-7.512-6.723-7.512-11.607 0-4.883 3.416-7.472 6.4-7.472.656 0 2.672-.114 5.104 3.891a.54.54 0 00.464.272.529.529 0 00.464-.272c2.4-4.005 4.44-3.89 5.104-3.89 2.984 0 6.4 2.441 6.4 7.471S30 17.362 25.6 21.798c-1.832 1.84-3.088 4.07-3.056 5.535.032 1.465.8 2.905 2.56 2.816 3.008-.139 2.84-2.646 3.456-4.005.336-.724.8-.724.872.367.072 1.09.112 1.473.232 2.637.144 1.497.672 3.182 2 3.052 1.144-.114 1.8-.814 2.016-2.987.056-.627.104-.912.184-1.823.048-.521.2-.912.424-.814.224.097.432.61.584.968.165.338.427.617.752.8.324.183.695.262 1.064.226h4.688v-1.71c-1.832 0-4.256 0-4.8-.056M52.68 4.468c1.944 0 3.056 1.131 3.056 2.441a1.87 1.87 0 01-.379 1.308c-.285.37-.7.616-1.157.687-.312.09-.344.447 0 .504a2.142 2.142 0 011.418.79 2.21 2.21 0 01.478 1.57c0 1.531-1.392 2.557-3.048 2.557H48.6V4.469h4.08zm-2.28 8.286h2.4c.904 0 1.424-.407 1.424-1.189 0-.96-.888-1.115-1.552-1.432a.93.93 0 01-.442-.346.955.955 0 01.442-1.429c.552-.236 1.208-.39 1.224-1.253 0-.676-.48-1.107-1.32-1.107H50.4v6.756zm8.368-5.16v.748a2.345 2.345 0 012.032-.879V9.14c-1.256 0-1.88.586-1.88 1.628v3.557h-1.816V7.594h1.664zM61.6 5.778a1.1 1.1 0 01.311-.768c.2-.205.47-.32.753-.323.285 0 .557.115.758.32a1.1 1.1 0 010 1.542c-.2.205-.473.32-.758.32a1.063 1.063 0 01-.753-.323 1.1 1.1 0 01-.31-.768zm1.928 1.815v6.699h-1.816V7.594h1.816zm6.072 5.551a2.14 2.14 0 01-.806.955c-.357.23-.772.345-1.194.331a1.803 1.803 0 01-1.472-.537 1.893 1.893 0 01-.528-1.498V9.1h-1.088V7.594H65.6V5.356h1.776v2.238h1.504V9.1h-1.488v3.305c0 .35.152.52.384.52s.384-.146.592-.529l.176-.341 1.224.7-.168.39zm.72-7.366a1.1 1.1 0 01.311-.768c.2-.205.47-.32.753-.323.285 0 .557.115.758.32a1.1 1.1 0 010 1.542c-.2.205-.473.32-.758.32a1.063 1.063 0 01-.753-.323 1.1 1.1 0 01-.31-.768zm1.928 1.815v6.699h-1.784V7.594h1.784zm2.992 4.786c0 .35.4.53 1 .53s.936-.196.936-.562c0-1.238-3.416-.416-3.416-2.817 0-1.212 1.016-2.035 2.712-2.035a3.15 3.15 0 011.298.216c.413.163.788.41 1.102.729l-.888 1.107a2.11 2.11 0 00-1.48-.619c-.672 0-.936.236-.936.537 0 1.042 3.432.456 3.432 2.8 0 1.31-1.072 2.133-2.784 2.133-1.6 0-2.72-.692-2.72-1.84a1.91 1.91 0 01.304-1l1.552.528a.698.698 0 00-.112.293zm11.016-2.4c0 .553-.136 1.269-.136 2.172a8.27 8.27 0 00.272 2.141h-1.784a7.94 7.94 0 01-.272-2.084c0-.814.12-1.432.12-1.912a1.151 1.151 0 00-.307-.97 1.11 1.11 0 00-.949-.325 1.394 1.394 0 00-1.154.437 1.444 1.444 0 00-.382 1.191v3.704H79.88V4.257h1.76v4.07a2.5 2.5 0 012.016-.871c.339-.03.68.015 1 .13a2.427 2.427 0 011.425 1.384c.128.32.188.664.175 1.01zm12.752-5.511v9.824h-1.824v-4.37H96c-2.112 0-3.152 1.05-3.152 2.807v1.563h-1.832V4.469h1.832v5.103a4.702 4.702 0 013.424-1.213h.904V4.47h1.832zm7.216 8.945a3.69 3.69 0 01-2.848 1.018 3.146 3.146 0 01-1.352-.184 3.19 3.19 0 01-1.155-.74 3.302 3.302 0 01-.949-2.535 3.434 3.434 0 011.019-2.548 3.312 3.312 0 012.533-.96c1.776-.001 2.592 1.065 2.592 2.164 0 1.832-2.208 2.442-4.256 2.442.232.545.712.814 1.6.814a2.982 2.982 0 001.944-.676l.872 1.205zM101.6 10.8c1.656 0 2.712-.268 2.712-1.09 0-.432-.288-.75-.96-.75a1.695 1.695 0 00-.687.134 1.738 1.738 0 00-.955 1.002 1.793 1.793 0 00-.11.704zm10.112 3.492a12.85 12.85 0 01-.248-.912 2.652 2.652 0 01-.996.809 2.609 2.609 0 01-1.252.241c-1.472 0-2.336-.854-2.336-2.083 0-1.23.8-1.962 2.936-2.01.632 0 1.28-.041 1.28-.57 0-.53-.376-.75-1.168-.75a1.646 1.646 0 00-.828.15 1.685 1.685 0 00-.652.542l-1.376-.862a3.22 3.22 0 011.241-1.072 3.155 3.155 0 011.599-.312c1.784 0 2.968.879 2.976 2.808a12.782 12.782 0 00.472 4.021h-1.648zm-.456-2.084c0-.26 0-.561-.064-.862A3.011 3.011 0 01110 11.5c-.528 0-1.344.082-1.344.887a.82.82 0 00.259.603.802.802 0 00.613.211c.344-.02.678-.12.978-.292.299-.172.556-.412.75-.7zm4.68-4.615v.749c.239-.3.546-.536.894-.69a2.316 2.316 0 011.106-.19V9.14c-1.256 0-1.872.586-1.872 1.628v3.557h-1.784V7.594h1.656zm7.696 5.551a2.14 2.14 0 01-.806.955c-.357.23-.772.345-1.194.331a1.81 1.81 0 01-.783-.114 1.844 1.844 0 01-1.084-1.122 1.901 1.901 0 01-.101-.799V9.1h-1.096V7.594h1.096V5.356h1.784v2.238h1.48V9.1h-1.48v3.305c0 .35.152.52.384.52s.384-.146.592-.529l.176-.341 1.224.7-.192.39zM50.4 20.235v3.028a3.775 3.775 0 012.4-.668h1.304v1.547h-1.6c-1.432 0-2.056.643-2.056 1.701v2.645H48.6v-9.767h6.04v1.546l-4.24-.032zm4.432 4.949a3.646 3.646 0 01.53-2.03 3.556 3.556 0 011.555-1.382 3.482 3.482 0 012.048-.264c.693.121 1.335.45 1.843.944a3.615 3.615 0 011.012 1.83c.15.7.093 1.428-.166 2.094a3.587 3.587 0 01-1.286 1.643 3.494 3.494 0 01-1.968.632 3.285 3.285 0 01-1.365-.193 3.328 3.328 0 01-1.172-.738 3.398 3.398 0 01-.779-1.158 3.446 3.446 0 01-.252-1.378zm5.264 0c0-1.23-.64-1.97-1.728-1.97a1.671 1.671 0 00-1.346.585 1.735 1.735 0 00-.398 1.434 1.802 1.802 0 00.445 1.363 1.718 1.718 0 002.582 0 1.782 1.782 0 00.445-1.363v-.05zm2.664.936c0-.554.136-1.278.136-2.157a8.202 8.202 0 00-.272-2.15h1.784c.184.682.276 1.386.272 2.093 0 .814-.128 1.424-.128 1.896 0 .814.376 1.294 1.184 1.294a1.393 1.393 0 001.141-.412 1.445 1.445 0 00.411-1.158v-3.712h1.784v6.674h-1.664v-.732a2.885 2.885 0 01-1 .675c-.376.152-.78.221-1.184.204a2.31 2.31 0 01-1.784-.698 2.422 2.422 0 01-.68-1.817zm13.976-1.921c0 .553-.136 1.27-.136 2.173a8.27 8.27 0 00.272 2.14h-1.784a7.942 7.942 0 01-.272-2.083c0-.814.12-1.44.12-1.913a1.151 1.151 0 00-.305-.965 1.11 1.11 0 00-.943-.329 1.393 1.393 0 00-1.137.424 1.445 1.445 0 00-.399 1.163v3.68H70.4v-6.675H72v.733a2.973 2.973 0 012.112-.863 2.36 2.36 0 011.005.121c.323.113.618.294.866.532a2.48 2.48 0 01.753 1.861zm6.464 4.29a4.653 4.653 0 01-.176-.896 2.649 2.649 0 01-.982.813 2.6 2.6 0 01-1.242.253 3.16 3.16 0 01-1.278-.267 3.201 3.201 0 01-1.068-.765 3.267 3.267 0 01-.678-1.135 3.307 3.307 0 01-.176-1.316 3.454 3.454 0 01.228-1.328 3.41 3.41 0 01.717-1.133 3.317 3.317 0 012.391-1.032 2.376 2.376 0 011.672.62v-3.826h1.808V24.1a18.624 18.624 0 00.48 4.412l-1.696-.025zm-.512-3.354c0-1.245-.656-1.937-1.672-1.937s-1.656.692-1.656 1.937.64 1.937 1.656 1.937 1.696-.66 1.696-1.913l-.024-.024zm7.856 3.353a9.58 9.58 0 01-.24-.911 2.672 2.672 0 01-1 .808 2.623 2.623 0 01-1.256.242c-1.464 0-2.328-.855-2.328-2.084 0-1.23.8-1.962 2.936-2.01.632 0 1.272-.041 1.272-.57 0-.53-.368-.757-1.16-.757a1.67 1.67 0 00-.832.155c-.26.122-.486.31-.656.545l-1.368-.863c.316-.46.744-.83 1.241-1.072a3.154 3.154 0 011.6-.312c1.783 0 2.96.88 2.975 2.808-.06 1.358.097 2.715.464 4.021h-1.648zm-.448-2.124c0-.269-.04-.562-.072-.863a2.85 2.85 0 01-1.192.147c-.52 0-1.344.09-1.344.895a.825.825 0 00.262.606.797.797 0 00.618.208 2.22 2.22 0 00.974-.281c.3-.168.558-.403.754-.688v-.024zm7.76 1.001a2.14 2.14 0 01-.806.955 2.09 2.09 0 01-1.194.331 1.804 1.804 0 01-1.448-.557 1.87 1.87 0 01-.512-1.486v-3.256H92.8v-1.538h1.096v-2.238h1.784v2.238h1.48v1.506h-1.48v3.304c0 .35.152.513.384.513s.384-.138.584-.529l.184-.334 1.216.7-.192.391zM98.6 20c0-.29.113-.567.314-.771.201-.205.474-.32.758-.32a1.055 1.055 0 01.817.283 1.087 1.087 0 01.348.804 1.104 1.104 0 01-.348.804 1.058 1.058 0 01-.817.282c-.283 0-.554-.113-.755-.316A1.1 1.1 0 0198.6 20zm1.936 1.815v6.674h-1.784v-6.674h1.784zm1.208 3.37a3.64 3.64 0 01.535-2.026 3.548 3.548 0 011.556-1.376 3.474 3.474 0 012.046-.256 3.502 3.502 0 011.837.951 3.606 3.606 0 011.002 1.833 3.648 3.648 0 01-.176 2.09 3.582 3.582 0 01-1.294 1.633 3.484 3.484 0 01-1.97.618 3.286 3.286 0 01-1.355-.203 3.336 3.336 0 01-1.161-.741 3.407 3.407 0 01-.77-1.153 3.453 3.453 0 01-.25-1.37zm5.264 0c0-1.23-.648-1.97-1.728-1.97a1.67 1.67 0 00-.738.137 1.73 1.73 0 00-.967 1.119 1.755 1.755 0 00-.039.763 1.794 1.794 0 00.445 1.363 1.722 1.722 0 002.582 0 1.785 1.785 0 00.445-1.363v-.05zm9.352-.985c0 .553-.136 1.27-.136 2.173a8.308 8.308 0 00.272 2.14h-1.784a8.275 8.275 0 01-.272-2.083c0-.814.128-1.44.128-1.913a1.143 1.143 0 00-.305-.965 1.105 1.105 0 00-.943-.329 1.394 1.394 0 00-1.137.424 1.444 1.444 0 00-.399 1.163v3.68H110v-6.675h1.656v.733a2.974 2.974 0 012.112-.863 2.364 2.364 0 011.85.667 2.465 2.465 0 01.742 1.848z" fill="#ED002D"/></g><defs><clipPath id="clip0_211_25180"><path fill="#fff" d="M0 0h124v35H0z"/></clipPath></defs></svg>